<svg xmlns="http://www.w3.org/2000/svg" viewBox="0 0 96 96" fill="none" stroke="#0891B2" stroke-width="3.4" stroke-linecap="round" stroke-linejoin="round">
  <path d="M46 14 24 22l22 8 22-8z" fill="#0891B2" stroke="#0891B2"/>
  <path d="M34 25v8c0 3 5.5 6 12 6s12-3 12-6v-8"/>
  <path d="M14 42c10-5 20-5 30 0v34c-10-5-20-5-30 0z"/>
  <path d="M44 42c6-3 12-4.2 18-3.6" opacity="0.7"/>
  <path d="M20 50c6-2.4 12-2.9 18-1.4M20 58c6-2.4 12-2.9 18-1.4M20 66c6-2.4 12-2.9 18-1.4" opacity="0.85"/>
  <rect x="56" y="46" width="26" height="34" rx="3"/>
  <path d="M62 54h14M62 61h14M62 68h7"/>
  <circle cx="74" cy="72" r="4.6"/>
  <path d="M71 75.6 68.6 82l5.4-2.6L79.4 82 77 75.6"/>
</svg>