<svg xmlns="http://www.w3.org/2000/svg" viewBox="0 0 96 96" fill="none" stroke="#0891B2" stroke-width="3.4" stroke-linecap="round" stroke-linejoin="round">
  <circle cx="48" cy="56" r="30" opacity="0.35"/>
  <path d="M48 22 20 32l28 10 28-10z" fill="#0891B2" stroke="#0891B2"/>
  <path d="M32 36v10c0 4 7 8 16 8s16-4 16-8V36" />
  <path d="M24 34v12" opacity="0.8"/><circle cx="24" cy="49" r="2.4" fill="#0891B2" stroke="none"/>
  <g>
    <circle cx="48" cy="66" r="7"/>
    <path d="M48 52v5M48 75v5M34 66h5M57 66h5M38 56l3.5 3.5M58 76l-3.5-3.5M38 76l3.5-3.5M58 56l-3.5 3.5"/>
  </g>
</svg>