<svg xmlns="http://www.w3.org/2000/svg" viewBox="0 0 96 96" fill="none" stroke="#0891B2" stroke-width="3.2" stroke-linecap="round" stroke-linejoin="round">
  <rect x="14" y="18" width="68" height="28" rx="2" opacity="0.45"/>
  <path d="M22 32l12 6 14-5 14 4 12-5" stroke-dasharray="3 3" opacity="0.75"/>
  <path d="M74 28l4-3 3 4" opacity="0.75"/>
  <path d="M26 78c0-3 1.5-6 5-7l4-9c1.6-3.4 4.4-5 8-5h10c3.6 0 6.4 1.6 8 5l4 9c3.5 1 5 4 5 7" />
  <path d="M26 78v5M70 78v5M34 78h28" />
  <path d="M35 62l5 1M61 62l-5 1" opacity="0.9"/>
  <path d="M34 71h6M56 71h6" opacity="0.9"/>
  <rect x="40" y="68" width="16" height="6" rx="1.5" opacity="0.85"/>
</svg>
