<svg xmlns="http://www.w3.org/2000/svg" viewBox="0 0 96 96" fill="none" stroke="#0891B2" stroke-width="3.2" stroke-linecap="round" stroke-linejoin="round">
  <g>
    <circle cx="30" cy="46" r="6"/>
    <path d="M30 34v4M30 54v4M18 46h4M38 46h4M22 38l3 3M38 54l-3-3M22 54l3-3M38 38l-3 3"/>
  </g>
  <path d="M46 34l14-6 14 6-14 6z" fill="#0891B2" stroke="#0891B2"/>
  <path d="M46 34v20l14 6V40M74 34v20l-14 6"/>
  <text x="60" y="52" font-family="Arial, sans-serif" font-size="9" font-weight="700" fill="#0891B2" stroke="none" text-anchor="middle">CAD</text>
  <path d="M20 68h44" stroke-dasharray="2 5" opacity="0.7"/>
  <path d="M78 30v6l6 30-6 6-6-30v-6z"/><circle cx="78" cy="34" r="3"/>
</svg>
